<svg width="12" height="12" viewBox="0 0 12 12" fill="none" xmlns="http://www.w3.org/2000/svg">
<path d="M7.5 3V9C7.5 9.29667 7.58797 9.58668 7.7528 9.83336C7.91762 10.08 8.15189 10.2723 8.42598 10.3858C8.70006 10.4994 9.00166 10.5291 9.29264 10.4712C9.58361 10.4133 9.85088 10.2704 10.0607 10.0607C10.2704 9.85088 10.4133 9.58361 10.4712 9.29264C10.5291 9.00166 10.4994 8.70006 10.3858 8.42598C10.2723 8.15189 10.08 7.91762 9.83336 7.7528C9.58668 7.58797 9.29667 7.5 9 7.5H3C2.70333 7.5 2.41332 7.58797 2.16665 7.7528C1.91997 7.91762 1.72771 8.15189 1.61418 8.42598C1.50065 8.70006 1.47094 9.00166 1.52882 9.29264C1.5867 9.58361 1.72956 9.85088 1.93934 10.0607C2.14912 10.2704 2.41639 10.4133 2.70737 10.4712C2.99834 10.5291 3.29994 10.4994 3.57403 10.3858C3.84812 10.2723 4.08238 10.08 4.24721 9.83336C4.41203 9.58668 4.5 9.29667 4.5 9V3C4.5 2.70333 4.41203 2.41332 4.24721 2.16665C4.08238 1.91997 3.84812 1.72771 3.57403 1.61418C3.29994 1.50065 2.99834 1.47094 2.70737 1.52882C2.41639 1.5867 2.14912 1.72956 1.93934 1.93934C1.72956 2.14912 1.5867 2.41639 1.52882 2.70737C1.47094 2.99834 1.50065 3.29994 1.61418 3.57403C1.72771 3.84812 1.91997 4.08238 2.16665 4.24721C2.41332 4.41203 2.70333 4.5 3 4.5H9C9.29667 4.5 9.58668 4.41203 9.83336 4.24721C10.08 4.08238 10.2723 3.84812 10.3858 3.57403C10.4994 3.29994 10.5291 2.99834 10.4712 2.70737C10.4133 2.41639 10.2704 2.14912 10.0607 1.93934C9.85088 1.72956 9.58361 1.5867 9.29264 1.52882C9.00166 1.47094 8.70006 1.50065 8.42598 1.61418C8.15189 1.72771 7.91762 1.91997 7.7528 2.16665C7.58797 2.41332 7.5 2.70333 7.5 3Z" stroke="#0069CE" stroke-linecap="round" stroke-linejoin="round"/>
</svg>
