<svg width="13" height="12" viewBox="0 0 13 12" fill="none" xmlns="http://www.w3.org/2000/svg">
<path d="M8.38281 3V9C8.38281 9.29667 8.47079 9.58668 8.63561 9.83336C8.80043 10.08 9.0347 10.2723 9.30879 10.3858C9.58288 10.4994 9.88448 10.5291 10.1754 10.4712C10.4664 10.4133 10.7337 10.2704 10.9435 10.0607C11.1533 9.85088 11.2961 9.58361 11.354 9.29264C11.4119 9.00166 11.3822 8.70006 11.2686 8.42598C11.1551 8.15189 10.9628 7.91762 10.7162 7.7528C10.4695 7.58797 10.1795 7.5 9.88281 7.5H3.88281C3.58614 7.5 3.29613 7.58797 3.04946 7.7528C2.80278 7.91762 2.61053 8.15189 2.49699 8.42598C2.38346 8.70006 2.35376 9.00166 2.41164 9.29264C2.46951 9.58361 2.61237 9.85088 2.82215 10.0607C3.03193 10.2704 3.29921 10.4133 3.59018 10.4712C3.88115 10.5291 4.18275 10.4994 4.45684 10.3858C4.73093 10.2723 4.9652 10.08 5.13002 9.83336C5.29484 9.58668 5.38281 9.29667 5.38281 9V3C5.38281 2.70333 5.29484 2.41332 5.13002 2.16665C4.9652 1.91997 4.73093 1.72771 4.45684 1.61418C4.18275 1.50065 3.88115 1.47094 3.59018 1.52882C3.29921 1.5867 3.03193 1.72956 2.82215 1.93934C2.61237 2.14912 2.46951 2.41639 2.41164 2.70737C2.35376 2.99834 2.38346 3.29994 2.49699 3.57403C2.61053 3.84812 2.80278 4.08238 3.04946 4.24721C3.29613 4.41203 3.58614 4.5 3.88281 4.5H9.88281C10.1795 4.5 10.4695 4.41203 10.7162 4.24721C10.9628 4.08238 11.1551 3.84812 11.2686 3.57403C11.3822 3.29994 11.4119 2.99834 11.354 2.70737C11.2961 2.41639 11.1533 2.14912 10.9435 1.93934C10.7337 1.72956 10.4664 1.5867 10.1754 1.52882C9.88448 1.47094 9.58288 1.50065 9.30879 1.61418C9.0347 1.72771 8.80043 1.91997 8.63561 2.16665C8.47079 2.41332 8.38281 2.70333 8.38281 3Z" stroke="#0A0A0A" stroke-linecap="round" stroke-linejoin="round"/>
</svg>
