<svg width="32" height="32" viewBox="0 0 32 32" fill="none" xmlns="http://www.w3.org/2000/svg">
<path d="M16 30C23.732 30 30 23.732 30 16C30 8.26801 23.732 2 16 2C8.26801 2 2 8.26801 2 16C2 23.732 8.26801 30 16 30Z" fill="url(#paint0_linear_1_138)"/>
<path opacity="0.4" d="M16 29C23.1797 29 29 23.1797 29 16C29 8.8203 23.1797 3 16 3C8.8203 3 3 8.8203 3 16C3 23.1797 8.8203 29 16 29Z" stroke="#53A1F9" stroke-width="0.25"/>
<path d="M13.5 18C15.9853 18 18 15.9853 18 13.5C18 11.0147 15.9853 9 13.5 9C11.0147 9 9 11.0147 9 13.5C9 15.9853 11.0147 18 13.5 18Z" stroke="url(#paint1_linear_1_138)" stroke-linecap="round"/>
<path d="M17 17L20.5 20.5" stroke="url(#paint2_linear_1_138)" stroke-linecap="round"/>
<g opacity="0.8">
<path d="M22 8L24 7" stroke="#F8F8F8" stroke-width="0.5" stroke-linecap="round"/>
<path d="M23 10L25.5 9.5" stroke="#F8F8F8" stroke-width="0.5" stroke-linecap="round"/>
<path d="M22 12L24 12.5" stroke="#F8F8F8" stroke-width="0.5" stroke-linecap="round"/>
</g>
<g opacity="0.15">
<path d="M8 8.25C8.13807 8.25 8.25 8.13807 8.25 8C8.25 7.86193 8.13807 7.75 8 7.75C7.86193 7.75 7.75 7.86193 7.75 8C7.75 8.13807 7.86193 8.25 8 8.25Z" fill="#F8F8F8"/>
<path d="M24 24.25C24.1381 24.25 24.25 24.1381 24.25 24C24.25 23.8619 24.1381 23.75 24 23.75C23.8619 23.75 23.75 23.8619 23.75 24C23.75 24.1381 23.8619 24.25 24 24.25Z" fill="#F8F8F8"/>
<path d="M8 24.25C8.13807 24.25 8.25 24.1381 8.25 24C8.25 23.8619 8.13807 23.75 8 23.75C7.86193 23.75 7.75 23.8619 7.75 24C7.75 24.1381 7.86193 24.25 8 24.25Z" fill="#F8F8F8"/>
</g>
<defs>
<linearGradient id="paint0_linear_1_138" x1="2" y1="2" x2="2802" y2="2802" gradientUnits="userSpaceOnUse">
<stop stop-color="#0084FF"/>
<stop offset="1" stop-color="#0069CE"/>
</linearGradient>
<linearGradient id="paint1_linear_1_138" x1="9" y1="9" x2="909" y2="909" gradientUnits="userSpaceOnUse">
<stop stop-color="#F8F8F8"/>
<stop offset="1" stop-color="#EAEFF5"/>
</linearGradient>
<linearGradient id="paint2_linear_1_138" x1="17" y1="17" x2="367" y2="367" gradientUnits="userSpaceOnUse">
<stop stop-color="#F8F8F8"/>
<stop offset="1" stop-color="#EAEFF5"/>
</linearGradient>
</defs>
</svg>
