<svg width="17" height="16" viewBox="0 0 17 16" fill="none" xmlns="http://www.w3.org/2000/svg">
<path d="M7.50256 7.33333V11.3333" stroke="#0A0A0A" stroke-width="1.33333" stroke-linecap="round" stroke-linejoin="round"/>
<path d="M10.1693 7.33333V11.3333" stroke="#0A0A0A" stroke-width="1.33333" stroke-linecap="round" stroke-linejoin="round"/>
<path d="M13.5026 4V13.3333C13.5026 13.687 13.3622 14.0261 13.1121 14.2761C12.8621 14.5262 12.5229 14.6667 12.1693 14.6667H5.50264C5.14902 14.6667 4.80988 14.5262 4.55984 14.2761C4.30979 14.0261 4.16931 13.687 4.16931 13.3333V4" stroke="#0A0A0A" stroke-width="1.33333" stroke-linecap="round" stroke-linejoin="round"/>
<path d="M2.83594 4H14.8359" stroke="#0A0A0A" stroke-width="1.33333" stroke-linecap="round" stroke-linejoin="round"/>
<path d="M6.16931 3.99999V2.66666C6.16931 2.31304 6.30979 1.9739 6.55984 1.72385C6.80988 1.4738 7.14902 1.33333 7.50264 1.33333H10.1693C10.5229 1.33333 10.8621 1.4738 11.1121 1.72385C11.3622 1.9739 11.5026 2.31304 11.5026 2.66666V3.99999" stroke="#0A0A0A" stroke-width="1.33333" stroke-linecap="round" stroke-linejoin="round"/>
</svg>
